<svg xmlns="http://www.w3.org/2000/svg" width="793.7" height="408.5" viewBox="0 0 210 108.1" fill="#f00"><style>@media(prefers-color-scheme:dark){path{fill:#fff}}</style><path d="M106 0c-4.4 0-7.8 1.3-10.1 3.6C93.3 6 92.1 9.9 92.1 15a1.7 1.7 0 1 0 3.4 0c0-4.3 1-7.2 2.8-9 1.8-1.8 4.7-2.7 8.5-2.6 7 0 9.6 6 9.6 11.6 0 2.9-1.5 5-2.7 6.1-.6.6-1.6 1.2-2.6 1.8a16.4 16.4 0 0 0-6.6 6 59 59 0 0 0-1.3 16.8L7.4 84h-.1C2.5 86.4-.3 91 0 96.5c.4 5 3.4 9.2 7.5 10.5 2.4.7 4.7 1.1 6.8 1.2v-3.4h-.5a23 23 0 0 1-5.3-1.1c-2.8-.9-4.8-3.9-5-7.4-.3-4 1.6-7.3 5.2-9l96.8-38.7a1.7 1.7 0 0 0 1.1-1.6c-.2-6.8.1-15 .8-16.3 1.3-2.2 3.4-3.4 5.4-4.6 1.3-.7 2.5-1.4 3.4-2.3 1.3-1.4 3.6-4.3 3.6-8.6 0-9-5-15-13-15a26.1 26.1 0 0 0-.8 0zm26.3 47.4a1.7 1.7 0 0 0-.3 0l-15.3 3a1.7 1.7 0 0 0-1.2 1c-.3.6-.2 1.1 0 1.6l7.4 13a1.7 1.7 0 0 0 2.4.7 1.7 1.7 0 0 0 .6-2.4l-5-8.6 78.3 31.6c6.4 2.7 8.3 7.5 7 10.8a4 4 0 0 1-3.6 2.6v3.4c3 0 5.6-1.7 6.8-4.7 2-4.9-.5-11.7-8.9-15.3-8.3-3.5-60.6-24.6-77.6-31.4l9.7-1.9a1.7 1.7 0 0 0 1.4-2 1.7 1.7 0 0 0-1.7-1.4z"/><path d="m14 104.7 188.7-4v3.4l-188.7 4z"/></svg>